<svg xmlns="http://www.w3.org/2000/svg" xmlns:xlink="http://www.w3.org/1999/xlink" xmlns:sketch="http://www.bohemiancoding.com/sketch/ns" viewBox="0 0 30 37.5" version="1.1" x="0px" y="0px"><title>action_025-info-detail-information-more</title><desc>Created with Sketch.</desc><g stroke="none" stroke-width="1" fill="none" fill-rule="evenodd" sketch:type="MSPage"><g sketch:type="MSArtboardGroup" transform="translate(-225.000000, -135.000000)" fill="#000000"><path d="M253,150 C253,142.820298 247.179702,137 240,137 C232.820298,137 227,142.820298 227,150 C227,157.179702 232.820298,163 240,163 C247.179702,163 253,157.179702 253,150 Z M228,150 C228,143.372583 233.372583,138 240,138 C246.627417,138 252,143.372583 252,150 C252,156.627417 246.627417,162 240,162 C233.372583,162 228,156.627417 228,150 Z M240,145 C240.552285,145 241,144.552285 241,144 C241,143.447715 240.552285,143 240,143 C239.447715,143 239,143.447715 239,144 C239,144.552285 239.447715,145 240,145 Z M240.5,147 L238.5,147 C238.223858,147 238,147.223858 238,147.5 C238,147.776142 238.223858,148 238.5,148 L239,148 L239,155 L238.5,155 C238.223858,155 238,155.223858 238,155.5 C238,155.776142 238.223858,156 238.5,156 L241.5,156 C241.776142,156 242,155.776142 242,155.5 C242,155.223858 241.776142,155 241.5,155 L241,155 L241,147.5 C241,147.223858 240.776142,147 240.5,147 Z" sketch:type="MSShapeGroup"/></g></g><text x="0" y="45" fill="#000000" font-size="5px" font-weight="bold" font-family="'Helvetica Neue', Helvetica, Arial-Unicode, Arial, Sans-serif">Created by Pham Thi Dieu Linh</text><text x="0" y="50" fill="#000000" font-size="5px" font-weight="bold" font-family="'Helvetica Neue', Helvetica, Arial-Unicode, Arial, Sans-serif">from the Noun Project</text></svg>