<svg xmlns="http://www.w3.org/2000/svg" xmlns:xlink="http://www.w3.org/1999/xlink" version="1.1" x="0px" y="0px" viewBox="0 0 60 75" style="enable-background:new 0 0 60 60;" xml:space="preserve"><g><path d="M55.5,60h-51C2.019,60,0,57.981,0,55.5v-51C0,2.019,2.019,0,4.5,0h51C57.981,0,60,2.019,60,4.5v51   C60,57.981,57.981,60,55.5,60z M4.5,2C3.122,2,2,3.121,2,4.5v51C2,56.879,3.122,58,4.5,58h51c1.379,0,2.5-1.121,2.5-2.5v-51   C58,3.121,56.878,2,55.5,2H4.5z"/><path d="M9,10H5c-0.552,0-1-0.447-1-1V5c0-0.553,0.448-1,1-1h4c0.552,0,1,0.447,1,1v4C10,9.553,9.552,10,9,10z M6,8h2V6H6V8z"/><path d="M17,10h-4c-0.552,0-1-0.447-1-1V5c0-0.553,0.448-1,1-1h4c0.552,0,1,0.447,1,1v4C18,9.553,17.552,10,17,10z M14,8h2V6h-2V8z   "/><path d="M25,10h-4c-0.552,0-1-0.447-1-1V5c0-0.553,0.448-1,1-1h4c0.552,0,1,0.447,1,1v4C26,9.553,25.552,10,25,10z M22,8h2V6h-2V8z   "/><path d="M59,14H1c-0.552,0-1-0.447-1-1V4.5C0,2.019,2.019,0,4.5,0h51C57.981,0,60,2.019,60,4.5V13C60,13.553,59.552,14,59,14z    M2,12h56V4.5C58,3.121,56.878,2,55.5,2h-51C3.122,2,2,3.121,2,4.5V12z"/><path d="M55.318,60H4.682C2.101,60,0,57.899,0,55.317V36c0-0.553,0.448-1,1-1h58c0.552,0,1,0.447,1,1v19.317   C60,57.899,57.899,60,55.318,60z M2,37v18.317C2,56.797,3.203,58,4.682,58h50.635C56.797,58,58,56.797,58,55.317V37H2z"/><path d="M49,31H35c-1.654,0-3-1.346-3-3s1.346-3,3-3h14c1.654,0,3,1.346,3,3S50.654,31,49,31z M35,27c-0.552,0-1,0.448-1,1   s0.448,1,1,1h14c0.552,0,1-0.448,1-1s-0.448-1-1-1H35z"/><path d="M51,19H33c-0.552,0-1-0.447-1-1s0.448-1,1-1h18c0.552,0,1,0.447,1,1S51.552,19,51,19z"/><path d="M54,23H33c-0.552,0-1-0.447-1-1s0.448-1,1-1h21c0.552,0,1,0.447,1,1S54.552,23,54,23z"/><path d="M28,33H6c-0.552,0-1-0.447-1-1V17c0-0.553,0.448-1,1-1h22c0.552,0,1,0.447,1,1v15C29,32.553,28.552,33,28,33z M7,31h20V18   H7V31z"/><path d="M21,29h-8c-0.552,0-1-0.447-1-1v-4c0-0.553,0.448-1,1-1h8c0.552,0,1,0.447,1,1v4C22,28.553,21.552,29,21,29z M14,27h6v-2   h-6V27z"/><path d="M49,55H35c-1.654,0-3-1.346-3-3s1.346-3,3-3h14c1.654,0,3,1.346,3,3S50.654,55,49,55z M35,51c-0.552,0-1,0.448-1,1   s0.448,1,1,1h14c0.552,0,1-0.448,1-1s-0.448-1-1-1H35z"/><path d="M51,43H33c-0.552,0-1-0.447-1-1s0.448-1,1-1h18c0.552,0,1,0.447,1,1S51.552,43,51,43z"/><path d="M54,47H33c-0.552,0-1-0.447-1-1s0.448-1,1-1h21c0.552,0,1,0.447,1,1S54.552,47,54,47z"/><path d="M28,56H6c-0.552,0-1-0.447-1-1V40c0-0.553,0.448-1,1-1h22c0.552,0,1,0.447,1,1v15C29,55.553,28.552,56,28,56z M7,54h20V41   H7V54z"/><path d="M19,25h-4c-0.552,0-1-0.447-1-1v-3c0-0.553,0.448-1,1-1h4c0.552,0,1,0.447,1,1v3C20,24.553,19.552,25,19,25z M16,23h2v-1   h-2V23z"/><path d="M21,52h-8c-0.552,0-1-0.447-1-1v-4c0-0.553,0.448-1,1-1h8c0.552,0,1,0.447,1,1v4C22,51.553,21.552,52,21,52z M14,50h6v-2   h-6V50z"/><path d="M19,48h-4c-0.552,0-1-0.447-1-1v-3c0-0.553,0.448-1,1-1h4c0.552,0,1,0.447,1,1v3C20,47.553,19.552,48,19,48z M16,46h2v-1   h-2V46z"/></g></svg>