<svg xmlns="http://www.w3.org/2000/svg" xmlns:xlink="http://www.w3.org/1999/xlink" version="1.1" x="0px" y="0px" viewBox="0 0 60 75" style="enable-background:new 0 0 60 60;" xml:space="preserve"><g><path d="M55.5,60h-51C2.019,60,0,57.981,0,55.5v-51C0,2.019,2.019,0,4.5,0h51C57.981,0,60,2.019,60,4.5v51   C60,57.981,57.981,60,55.5,60z M4.5,2C3.122,2,2,3.121,2,4.5v51C2,56.879,3.122,58,4.5,58h51c1.379,0,2.5-1.121,2.5-2.5v-51   C58,3.121,56.878,2,55.5,2H4.5z"/><path d="M9,10H5c-0.552,0-1-0.447-1-1V5c0-0.553,0.448-1,1-1h4c0.552,0,1,0.447,1,1v4C10,9.553,9.552,10,9,10z M6,8h2V6H6V8z"/><path d="M17,10h-4c-0.552,0-1-0.447-1-1V5c0-0.553,0.448-1,1-1h4c0.552,0,1,0.447,1,1v4C18,9.553,17.552,10,17,10z M14,8h2V6h-2V8z   "/><path d="M25,10h-4c-0.552,0-1-0.447-1-1V5c0-0.553,0.448-1,1-1h4c0.552,0,1,0.447,1,1v4C26,9.553,25.552,10,25,10z M22,8h2V6h-2V8z   "/><path d="M59,14H1c-0.552,0-1-0.447-1-1V4.5C0,2.019,2.019,0,4.5,0h51C57.981,0,60,2.019,60,4.5V13C60,13.553,59.552,14,59,14z    M2,12h56V4.5C58,3.121,56.878,2,55.5,2h-51C3.122,2,2,3.121,2,4.5V12z"/><path d="M55,46H5c-0.552,0-1-0.447-1-1V33c0-0.553,0.448-1,1-1h50c0.552,0,1,0.447,1,1v12C56,45.553,55.552,46,55,46z M6,44h48V34   H6V44z"/><path d="M48,42h-6c-1.654,0-3-1.346-3-3s1.346-3,3-3h6c1.654,0,3,1.346,3,3S49.654,42,48,42z M42,38c-0.552,0-1,0.448-1,1   s0.448,1,1,1h6c0.552,0,1-0.448,1-1s-0.448-1-1-1H42z"/><path d="M35,42H10c-0.552,0-1-0.447-1-1v-4c0-0.553,0.448-1,1-1h25c0.552,0,1,0.447,1,1v4C36,41.553,35.552,42,35,42z M11,40h23v-2   H11V40z"/><path d="M29,27c-2.757,0-5-2.243-5-5s2.243-5,5-5s5,2.243,5,5S31.757,27,29,27z M29,19c-1.654,0-3,1.346-3,3s1.346,3,3,3   s3-1.346,3-3S30.654,19,29,19z"/><path d="M35,29c-0.256,0-0.512-0.098-0.707-0.293l-3.174-3.175c-0.39-0.391-0.39-1.023,0-1.414s1.024-0.391,1.414,0l3.174,3.175   c0.39,0.391,0.39,1.023,0,1.414C35.512,28.902,35.256,29,35,29z"/><path d="M40,51H20c-0.552,0-1-0.447-1-1s0.448-1,1-1h20c0.552,0,1,0.447,1,1S40.552,51,40,51z"/><path d="M45,55H15c-0.552,0-1-0.447-1-1s0.448-1,1-1h30c0.552,0,1,0.447,1,1S45.552,55,45,55z"/></g></svg>